<svg width="34" height="34" viewBox="0 0 34 34" fill="none" xmlns="http://www.w3.org/2000/svg">
<rect width="34" height="34" fill="#1E1E1E"/>
<rect x="1" y="2" width="32" height="32" fill="#D9D9D9"/>
<path d="M1 12.5883C2.07932 12.5883 4.60136 11.9816 8.03729 10.8304C11.1646 9.78248 13.4637 9.52741 15.6359 9.14365C18.1441 8.70053 19.9722 7.68903 22.1444 6.694C23.1763 6.22134 24.3166 6.00231 24.8617 6.00002C27.1694 5.99029 20.5471 10.272 17.9112 12.9629C16.2796 14.6285 16.0129 16.7155 15.9125 21.9135C15.8911 23.0261 16.718 23.3061 17.3525 23.5382C18.6603 24.0165 21.5885 24.0782 25.1112 23.9265C28.2774 23.7902 29.3769 20.8702 31.1858 18.6481C31.5519 18.108 31.7308 17.653 32.002 17.1912C32.2732 16.7293 32.6312 16.2743 33 15.8055" stroke="#1E1E1E" stroke-width="2" stroke-linecap="round"/>
<path d="M7.10796 1C7.10796 1.31119 7.10796 8.4733 7.01668 19.3155C6.97233 24.5849 6.18972 26.4516 6.00164 30.5348C5.9428 31.8124 7.47304 27.4135 9.31228 25.9943C10.2955 25.2356 12.0753 25.0466 13.9173 25.28C16.4446 25.6002 16.3235 28.8091 16.6942 31.0889C16.7868 31.6589 17.2418 32.1097 17.7949 32.4279C18.9541 33.0949 21.2909 33.0621 23.7773 32.9065C27.0793 32.6999 28.493 29.2995 29.6906 27.4111C30.7056 25.5228 31.6294 24.1083 31.906 22.4675C32 21.2934 32 19.4263 32 17.5025" stroke="#1E1E1E" stroke-width="2" stroke-linecap="round"/>
<path d="M10 15C10 14.835 10 14.67 10.297 14.42C10.594 14.17 11.188 13.84 13 13" stroke="#1E1E1E" stroke-width="2" stroke-linecap="round"/>
<path d="M17 15.4934C18.0721 15.9929 20.7848 16.1577 21.597 15.8305C22.1474 15.6088 21.8732 14.1847 21.6051 13.5079C21.3371 12.8311 20.8011 12.6663 20.7929 12.4165C20.7848 12.1668 21.3209 11.8371 21.865 11.7497C22.9452 11.8271 24.0336 11.9969 24.8458 11.6673C25.1219 11.3376 25.1219 10.6783 24.039 9" stroke="#1E1E1E" stroke-width="2" stroke-linecap="round"/>
<path d="M22 23C22 22.67 22 21.675 22.3667 20.5075C22.6706 19.5396 24.7722 20.83 25.6972 21C26.2556 20.18 26.6278 19.005 27.7306 18.255C28.65 18 30.3 18 32 18" stroke="#1E1E1E" stroke-width="2" stroke-linecap="round"/>
</svg>
